<?xml version="1.0" encoding="utf-8"?>
<svg width="273" height="48" viewBox="0 0 1456 256" fill="none" xmlns="http://www.w3.org/2000/svg" version="1.1" xmlns:bx="https://boxy-svg.com">
  <defs>
    <bx:export>
      <bx:file format="svg" />
    </bx:export>
  </defs>
  <g transform="translate(0, 0)">
    <svg width="256" height="256" viewBox="0 0 256 256" fill="none" xmlns="http://www.w3.org/2000/svg">
      <rect width="256" height="256" rx="60" fill="#394AAB" />
      <path d="M134.001 33C169.144 33 199.828 52.0863 216.262 80.4561L216.102 80.183L174.753 103.991C166.607 90.1977 151.672 80.8892 134.54 80.6975L134.001 80.6945C107.875 80.6945 86.6945 101.874 86.6945 127.999C86.6945 136.543 88.9723 144.552 92.9335 151.469C101.088 165.704 116.416 175.306 134.001 175.306C151.693 175.306 167.109 165.582 175.222 151.195L175.025 151.54L216.311 175.458C200.057 203.588 169.794 222.615 135.059 222.994L134.001 223C98.746 223 67.9753 203.796 51.582 175.276C43.5791 161.353 39 145.212 39 127.999C39 75.5334 81.5323 33 134.001 33Z" fill="white" />
    </svg>
  </g>
  <g transform="translate(600, 0)">
    <svg xmlns="http://www.w3.org/2000/svg" width="256" height="256" fill="none" viewBox="0 0 256 256">
      <rect width="256" height="256" fill="#242938" rx="60" />
      <path fill="url(#paint0_linear_2_47)" d="M127.279 29C76.5066 29 79.6772 51.018 79.6772 51.018L79.7338 73.8284H128.185V80.6772H60.4893C60.4893 80.6772 28 76.9926 28 128.222C28 179.452 56.3573 177.636 56.3573 177.636H73.2812V153.863C73.2812 153.863 72.369 125.506 101.186 125.506H149.24C149.24 125.506 176.239 125.942 176.239 99.4123V55.5461C176.239 55.5461 180.338 29 127.279 29ZM100.563 44.339C105.384 44.339 109.28 48.2351 109.28 53.0556C109.28 57.8761 105.384 61.7723 100.563 61.7723C95.7426 61.7723 91.8465 57.8761 91.8465 53.0556C91.8465 48.2351 95.7426 44.339 100.563 44.339Z" />
      <path fill="url(#paint1_linear_2_47)" d="M128.721 227.958C179.493 227.958 176.323 205.941 176.323 205.941L176.266 183.13H127.815V176.281H195.511C195.511 176.281 228 179.966 228 128.736C228 77.5062 199.643 79.323 199.643 79.323H182.719V103.096C182.719 103.096 183.631 131.453 154.814 131.453H106.76C106.76 131.453 79.7607 131.016 79.7607 157.546V201.412C79.7607 201.412 75.6615 227.958 128.721 227.958ZM155.437 212.619C150.616 212.619 146.72 208.723 146.72 203.903C146.72 199.082 150.616 195.186 155.437 195.186C160.257 195.186 164.154 199.082 164.154 203.903C164.154 208.723 160.257 212.619 155.437 212.619Z" />
      <defs>
        <linearGradient id="paint0_linear_2_47" x1="47.22" x2="146.333" y1="46.896" y2="145.02" gradientUnits="userSpaceOnUse">
          <stop stop-color="#387EB8" />
          <stop offset="1" stop-color="#366994" />
        </linearGradient>
        <linearGradient id="paint1_linear_2_47" x1="108.056" x2="214.492" y1="109.905" y2="210.522" gradientUnits="userSpaceOnUse">
          <stop stop-color="#FFE052" />
          <stop offset="1" stop-color="#FFC331" />
        </linearGradient>
      </defs>
    </svg>
  </g>
  <g transform="translate(900, 0)">
    <svg xmlns="http://www.w3.org/2000/svg" width="256" height="256" fill="none" viewBox="0 0 256 256">
      <rect width="256" height="256" fill="#E43717" rx="60" />
      <g clip-path="url(#clip0_5_31)">
        <path fill="url(#paint0_linear_5_31)" fill-rule="evenodd" d="M177.454 156.477L74.6851 217.5L207.751 208.471L218 74.2944L177.454 156.477Z" clip-rule="evenodd" />
        <path fill="url(#paint1_linear_5_31)" fill-rule="evenodd" d="M207.969 208.379L196.532 129.44L165.379 170.577L207.969 208.379Z" clip-rule="evenodd" />
        <path fill="url(#paint2_linear_5_31)" fill-rule="evenodd" d="M208.124 208.379L124.334 201.802L75.1301 217.329L208.124 208.379Z" clip-rule="evenodd" />
        <path fill="url(#paint3_linear_5_31)" fill-rule="evenodd" d="M75.2482 217.346L96.1799 148.773L50.1193 158.622L75.2482 217.346Z" clip-rule="evenodd" />
        <path fill="url(#paint4_linear_5_31)" fill-rule="evenodd" d="M165.371 170.804L146.111 95.3623L90.9924 147.028L165.371 170.804Z" clip-rule="evenodd" />
        <path fill="url(#paint5_linear_5_31)" fill-rule="evenodd" d="M213.63 96.4253L161.528 53.8714L147.019 100.777L213.63 96.4253Z" clip-rule="evenodd" />
        <path fill="url(#paint6_linear_5_31)" fill-rule="evenodd" d="M189.264 38.6995L158.621 55.6339L139.288 38.4724L189.264 38.6995Z" clip-rule="evenodd" />
        <path fill="url(#paint7_linear_5_31)" fill-rule="evenodd" d="M38 181.624L50.837 158.212L40.4529 130.321L38 181.624Z" clip-rule="evenodd" />
        <path fill="#fff" fill-rule="evenodd" d="M39.7625 129.44L50.2101 159.075L95.6076 148.89L147.437 100.722L162.064 54.262L139.033 38L99.8766 52.654C87.5402 64.1283 63.6013 86.8316 62.7383 87.2586C61.8843 87.6946 46.9305 115.958 39.7625 129.44Z" clip-rule="evenodd" />
        <path fill="url(#paint8_linear_5_31)" fill-rule="evenodd" d="M76.4475 76.2022C103.184 49.6923 137.653 34.0299 150.88 47.3757C164.1 60.7215 150.081 93.1547 123.344 119.655C96.607 146.156 62.5657 162.682 49.3471 149.336C36.1194 135.999 49.7105 102.703 76.4475 76.2022V76.2022Z" clip-rule="evenodd" />
        <path fill="url(#paint9_linear_5_31)" fill-rule="evenodd" d="M75.2483 217.319L96.0165 148.527L164.989 170.686C140.051 194.07 112.315 213.839 75.2483 217.319Z" clip-rule="evenodd" />
        <path fill="url(#paint10_linear_5_31)" fill-rule="evenodd" d="M147.528 100.586L165.235 170.722C186.066 148.818 204.763 125.27 213.92 96.1436L147.528 100.586V100.586Z" clip-rule="evenodd" />
        <path fill="url(#paint11_linear_5_31)" fill-rule="evenodd" d="M213.739 96.498C220.825 75.112 222.461 44.4322 189.045 38.7359L161.627 53.8805L213.739 96.498V96.498Z" clip-rule="evenodd" />
        <path fill="#9E1209" fill-rule="evenodd" d="M38 181.315C38.9812 216.611 64.4463 217.137 75.2937 217.447L50.2374 158.93L38 181.315Z" clip-rule="evenodd" />
        <path fill="url(#paint12_radial_5_31)" fill-rule="evenodd" d="M147.627 100.695C163.635 110.534 195.896 130.294 196.55 130.657C197.567 131.23 210.459 108.917 213.385 96.3072L147.627 100.695V100.695Z" clip-rule="evenodd" />
        <path fill="url(#paint13_radial_5_31)" fill-rule="evenodd" d="M95.9893 148.527L123.753 202.092C140.169 193.189 153.025 182.342 164.799 170.722L95.9893 148.527Z" clip-rule="evenodd" />
        <path fill="url(#paint14_linear_5_31)" fill-rule="evenodd" d="M50.1284 159.002L46.1946 205.844C53.617 215.983 63.8285 216.864 74.5396 216.074C66.7901 196.787 51.3094 158.221 50.1284 159.002V159.002Z" clip-rule="evenodd" />
        <path fill="url(#paint15_linear_5_31)" fill-rule="evenodd" d="M161.464 53.9986L216.619 61.7389C213.676 49.2653 204.636 41.2161 189.228 38.6995L161.464 53.9986Z" clip-rule="evenodd" />
      </g>
      <defs>
        <linearGradient id="paint0_linear_5_31" x1="196.145" x2="158.172" y1="233.825" y2="166.782" gradientUnits="userSpaceOnUse">
          <stop stop-color="#FB7655" />
          <stop offset="0.41" stop-color="#E42B1E" />
          <stop offset="0.99" stop-color="#900" />
          <stop offset="1" stop-color="#900" />
        </linearGradient>
        <linearGradient id="paint1_linear_5_31" x1="215.061" x2="166.123" y1="177.506" y2="144.666" gradientUnits="userSpaceOnUse">
          <stop stop-color="#871101" />
          <stop offset="0.99" stop-color="#911209" />
          <stop offset="1" stop-color="#911209" />
        </linearGradient>
        <linearGradient id="paint2_linear_5_31" x1="175.905" x2="126.969" y1="235.857" y2="203.017" gradientUnits="userSpaceOnUse">
          <stop stop-color="#871101" />
          <stop offset="0.99" stop-color="#911209" />
          <stop offset="1" stop-color="#911209" />
        </linearGradient>
        <linearGradient id="paint3_linear_5_31" x1="73.155" x2="80.742" y1="153.734" y2="203.038" gradientUnits="userSpaceOnUse">
          <stop stop-color="#fff" />
          <stop offset="0.23" stop-color="#E57252" />
          <stop offset="0.46" stop-color="#DE3B20" />
          <stop offset="0.99" stop-color="#A60003" />
          <stop offset="1" stop-color="#A60003" />
        </linearGradient>
        <linearGradient id="paint4_linear_5_31" x1="125.336" x2="128.131" y1="107.695" y2="158.014" gradientUnits="userSpaceOnUse">
          <stop stop-color="#fff" />
          <stop offset="0.23" stop-color="#E4714E" />
          <stop offset="0.56" stop-color="#BE1A0D" />
          <stop offset="0.99" stop-color="#A80D00" />
          <stop offset="1" stop-color="#A80D00" />
        </linearGradient>
        <linearGradient id="paint5_linear_5_31" x1="171.642" x2="180.01" y1="61.186" y2="97.249" gradientUnits="userSpaceOnUse">
          <stop stop-color="#fff" />
          <stop offset="0.18" stop-color="#E46342" />
          <stop offset="0.4" stop-color="#C82410" />
          <stop offset="0.99" stop-color="#A80D00" />
          <stop offset="1" stop-color="#A80D00" />
        </linearGradient>
        <linearGradient id="paint6_linear_5_31" x1="146.089" x2="182.15" y1="48.485" y2="30.455" gradientUnits="userSpaceOnUse">
          <stop stop-color="#fff" />
          <stop offset="0.54" stop-color="#C81F11" />
          <stop offset="0.99" stop-color="#BF0905" />
          <stop offset="1" stop-color="#BF0905" />
        </linearGradient>
        <linearGradient id="paint7_linear_5_31" x1="41.546" x2="44.514" y1="141.164" y2="170.879" gradientUnits="userSpaceOnUse">
          <stop stop-color="#fff" />
          <stop offset="0.31" stop-color="#DE4024" />
          <stop offset="0.99" stop-color="#BF190B" />
          <stop offset="1" stop-color="#BF190B" />
        </linearGradient>
        <linearGradient id="paint8_linear_5_31" x1="21.142" x2="160.661" y1="178.912" y2="35.448" gradientUnits="userSpaceOnUse">
          <stop stop-color="#BD0012" />
          <stop offset="0.07" stop-color="#fff" />
          <stop offset="0.17" stop-color="#fff" />
          <stop offset="0.27" stop-color="#C82F1C" />
          <stop offset="0.33" stop-color="#820C01" />
          <stop offset="0.46" stop-color="#A31601" />
          <stop offset="0.72" stop-color="#B31301" />
          <stop offset="0.99" stop-color="#E82609" />
          <stop offset="1" stop-color="#E82609" />
        </linearGradient>
        <linearGradient id="paint9_linear_5_31" x1="128.009" x2="85.985" y1="193.383" y2="183.011" gradientUnits="userSpaceOnUse">
          <stop stop-color="#8C0C01" />
          <stop offset="0.54" stop-color="#990C00" />
          <stop offset="0.99" stop-color="#A80D0E" />
          <stop offset="1" stop-color="#A80D0E" />
        </linearGradient>
        <linearGradient id="paint10_linear_5_31" x1="200.19" x2="162.857" y1="142.944" y2="109.484" gradientUnits="userSpaceOnUse">
          <stop stop-color="#7E110B" />
          <stop offset="0.99" stop-color="#9E0C00" />
          <stop offset="1" stop-color="#9E0C00" />
        </linearGradient>
        <linearGradient id="paint11_linear_5_31" x1="213.906" x2="195.31" y1="81.55" y2="61.67" gradientUnits="userSpaceOnUse">
          <stop stop-color="#79130D" />
          <stop offset="0.99" stop-color="#9E120B" />
          <stop offset="1" stop-color="#9E120B" />
        </linearGradient>
        <radialGradient id="paint12_radial_5_31" cx="0" cy="0" r="1" gradientTransform="translate(168.67 110.124) scale(45.7496)" gradientUnits="userSpaceOnUse">
          <stop stop-color="#A80D00" />
          <stop offset="0.99" stop-color="#7E0E08" />
          <stop offset="1" stop-color="#7E0E08" />
        </radialGradient>
        <radialGradient id="paint13_radial_5_31" cx="0" cy="0" r="1" gradientTransform="translate(105.313 170.414) scale(60.818)" gradientUnits="userSpaceOnUse">
          <stop stop-color="#A30C00" />
          <stop offset="0.99" stop-color="#800E08" />
          <stop offset="1" stop-color="#800E08" />
        </radialGradient>
        <linearGradient id="paint14_linear_5_31" x1="62.229" x2="47.075" y1="217.279" y2="165.863" gradientUnits="userSpaceOnUse">
          <stop stop-color="#8B2114" />
          <stop offset="0.43" stop-color="#9E100A" />
          <stop offset="0.99" stop-color="#B3100C" />
          <stop offset="1" stop-color="#B3100C" />
        </linearGradient>
        <linearGradient id="paint15_linear_5_31" x1="178.491" x2="212.466" y1="46.901" y2="61.899" gradientUnits="userSpaceOnUse">
          <stop stop-color="#B31000" />
          <stop offset="0.44" stop-color="#910F08" />
          <stop offset="0.99" stop-color="#791C12" />
          <stop offset="1" stop-color="#791C12" />
        </linearGradient>
        <clipPath id="clip0_5_31">
          <rect width="180" height="179.5" fill="#fff" transform="translate(38 38)" />
        </clipPath>
      </defs>
    </svg>
  </g>
  <g transform="matrix(1, 0, 0, 1, 300, 0.000031)" style="transform-origin: 128px 128px 0px;">
    <svg width="256" height="256" viewBox="0 0 256 256" fill="none" xmlns="http://www.w3.org/2000/svg">
      <rect width="256" height="256" rx="60" style="fill: rgb(36, 41, 56);" />
      <path class="st0" d="M 217.651 16 C 205.296 16 195.285 26.01 195.285 38.357 C 195.285 42.697 196.546 46.739 198.681 50.168 L 184.444 64.405 C 166.558 48.217 142.845 38.357 116.821 38.357 C 61.143 38.357 16 83.507 16 139.182 C 16 194.867 61.143 240 116.821 240 C 172.508 240 217.643 194.859 217.643 139.182 C 217.643 113.16 207.781 89.447 191.593 71.562 L 205.829 57.327 C 209.259 59.47 213.303 60.721 217.643 60.721 C 229.99 60.721 240 50.712 240 38.365 C 240 26.018 229.998 16 217.651 16 Z" style="fill: rgb(17, 59, 106); stroke-width: 1px;" />
      <path class="st1" d="M 69.858 153.262 C 69.701 153.551 69.316 153.699 68.686 153.699 L 61.32 153.699 C 60.34 153.699 59.851 153.227 59.851 152.291 C 59.851 150.323 59.851 148.372 59.868 146.431 L 59.885 143.526 C 59.912 140.63 59.921 137.7 59.921 134.752 C 59.921 132.879 59.597 131.549 58.948 130.77 C 58.302 129.992 57.261 129.598 55.835 129.598 C 54.768 129.598 53.604 129.852 52.353 130.368 C 51.103 130.885 50.079 131.279 49.274 131.541 L 49.274 152.299 C 49.274 152.659 49.195 152.983 49.037 153.271 C 48.88 153.56 48.495 153.708 47.866 153.708 L 40.569 153.708 C 39.992 153.708 39.598 153.586 39.397 153.341 C 39.196 153.096 39.1 152.746 39.1 152.299 L 39.1 122.172 C 39.1 121.726 39.196 121.366 39.397 121.104 C 39.598 120.832 39.992 120.701 40.569 120.701 L 47.866 120.701 C 48.486 120.701 48.88 120.859 49.037 121.174 C 49.195 121.489 49.274 121.822 49.274 122.181 L 49.274 123.79 C 49.3 123.79 49.326 123.798 49.344 123.807 L 49.37 123.825 C 49.396 123.851 49.422 123.859 49.475 123.859 C 50.954 122.749 52.668 121.839 54.628 121.147 C 56.588 120.456 58.38 120.107 59.982 120.107 C 62.344 120.107 64.216 120.501 65.572 121.279 C 66.936 122.067 67.951 123.09 68.616 124.358 C 69.289 125.627 69.701 127.053 69.849 128.61 C 70.007 130.175 70.086 131.734 70.086 133.299 L 70.086 152.316 C 70.103 152.641 70.016 152.965 69.858 153.262 Z M 95.682 149.676 C 94.79 150.48 93.827 151.171 92.804 151.748 C 91.781 152.325 90.731 152.807 89.654 153.192 C 88.579 153.568 87.538 153.839 86.505 153.997 C 85.482 154.154 84.546 154.233 83.698 154.233 C 81.729 154.233 80.136 153.953 78.912 153.393 C 77.688 152.834 76.733 152.107 76.069 151.215 C 75.396 150.323 74.941 149.282 74.696 148.1 C 74.486 147.121 74.372 146.088 74.336 145.03 L 74.328 144.383 C 74.284 142.327 74.565 140.595 75.168 139.16 C 75.772 137.734 76.629 136.579 77.749 135.713 C 78.86 134.847 80.224 134.218 81.834 133.841 C 83.443 133.465 85.229 133.272 87.189 133.272 L 94.886 133.272 L 94.886 132.205 C 94.886 131.488 94.807 130.885 94.649 130.394 C 94.493 129.905 94.203 129.502 93.784 129.188 C 93.356 128.873 92.768 128.645 92.008 128.488 C 91.343 128.348 90.495 128.269 89.453 128.261 L 88.999 128.261 C 88.701 128.261 88.36 128.269 87.984 128.286 L 84.853 128.461 C 84.047 128.506 83.242 128.576 82.438 128.662 C 81.834 128.733 81.274 128.785 80.741 128.829 L 79.647 128.916 C 79.026 128.952 78.606 128.943 78.379 128.873 C 78.09 128.785 77.854 128.4 77.679 127.735 L 76.944 124.253 C 76.856 123.676 76.935 123.195 77.179 122.81 C 77.424 122.434 78.064 122.04 79.087 121.639 C 79.848 121.366 80.723 121.139 81.729 120.938 C 82.735 120.737 83.759 120.571 84.808 120.44 C 85.858 120.308 86.899 120.203 87.923 120.142 C 88.946 120.072 89.839 120.046 90.6 120.046 C 93.723 120.046 96.233 120.334 98.131 120.911 C 100.03 121.489 101.482 122.321 102.48 123.388 C 103.476 124.454 104.141 125.776 104.456 127.341 C 104.771 128.907 104.928 130.692 104.928 132.695 L 104.928 143.273 C 104.928 143.989 104.964 144.54 105.034 144.942 C 105.104 145.345 105.227 145.642 105.402 145.843 C 105.576 146.045 105.821 146.194 106.136 146.282 C 106.39 146.352 106.704 146.413 107.098 146.456 L 107.404 146.483 C 107.981 146.526 108.367 146.631 108.542 146.78 C 108.717 146.937 108.813 147.217 108.813 147.62 L 108.813 151.906 C 108.813 152.738 108.253 153.297 107.142 153.586 L 106.871 153.647 C 105.62 153.962 104.237 154.119 102.715 154.119 C 101.062 154.119 99.611 153.839 98.359 153.28 C 97.108 152.72 96.26 151.547 95.813 149.763 L 95.682 149.676 Z M 94.676 139.763 L 88.648 139.763 C 87.398 139.763 86.418 140.053 85.7 140.63 C 84.984 141.207 84.625 142.283 84.625 143.849 C 84.625 144.872 84.835 145.59 85.263 145.992 C 85.683 146.395 86.479 146.596 87.643 146.596 C 88.666 146.596 89.865 146.352 91.23 145.861 C 92.594 145.371 93.741 144.838 94.676 144.252 L 94.676 139.763 Z M 138.669 143.273 C 138.669 145.362 138.258 147.113 137.428 148.512 C 136.597 149.92 135.494 151.04 134.113 151.888 C 132.73 152.738 131.156 153.35 129.388 153.726 C 127.622 154.102 125.784 154.294 123.86 154.294 C 123.054 154.294 122.189 154.259 121.253 154.197 C 120.316 154.128 119.363 154.032 118.41 153.9 C 117.447 153.769 116.528 153.612 115.662 153.437 C 114.797 153.262 114.017 153.061 113.353 152.842 C 112.234 152.44 111.525 152.037 111.21 151.608 C 110.929 151.232 110.868 150.681 111.008 149.938 L 111.805 146.465 C 111.936 145.843 112.137 145.458 112.409 145.327 C 112.645 145.214 113.064 145.196 113.677 145.284 L 113.947 145.327 C 115.514 145.599 117.202 145.808 119.04 145.966 C 120.868 146.123 122.364 146.203 123.526 146.203 C 125.225 146.203 126.423 146.009 127.14 145.633 C 127.858 145.248 128.207 144.619 128.207 143.719 C 128.207 142.729 127.937 142.073 127.403 141.741 C 126.869 141.408 125.88 141.146 124.455 140.971 C 122.626 140.7 120.921 140.385 119.328 140.035 C 117.745 139.676 116.344 139.142 115.146 138.425 C 113.939 137.708 112.994 136.745 112.303 135.538 C 111.612 134.331 111.262 132.739 111.262 130.77 C 111.262 128.977 111.604 127.411 112.295 126.073 C 112.977 124.735 113.922 123.614 115.121 122.722 C 116.319 121.831 117.754 121.156 119.416 120.71 C 121.078 120.264 122.897 120.037 124.856 120.037 C 125.617 120.037 126.457 120.072 127.368 120.142 C 128.286 120.212 129.213 120.3 130.149 120.413 C 131.086 120.526 131.995 120.676 132.861 120.85 C 133.728 121.034 134.523 121.253 135.241 121.523 C 136.134 121.839 136.789 122.163 137.217 122.504 C 137.638 122.845 137.742 123.44 137.515 124.297 L 136.78 127.745 C 136.605 128.374 136.413 128.75 136.212 128.89 C 136.037 129.013 135.634 129.038 135.013 128.986 L 132.949 128.741 C 132.73 128.715 132.511 128.689 132.292 128.662 C 131.401 128.549 130.517 128.461 129.65 128.392 L 127.788 128.261 C 127.595 128.252 127.394 128.234 127.21 128.225 L 126.353 128.182 C 126.221 128.173 126.09 128.173 125.968 128.173 L 125.268 128.164 C 123.57 128.121 122.513 128.313 122.083 128.733 C 121.664 129.152 121.445 129.721 121.445 130.438 C 121.445 131.288 121.838 131.829 122.626 132.074 C 123.413 132.319 124.411 132.556 125.617 132.774 C 127.368 133.001 129.02 133.272 130.595 133.605 C 132.161 133.938 133.544 134.489 134.724 135.241 C 135.905 135.993 136.859 137.009 137.585 138.277 C 138.311 139.501 138.669 141.181 138.669 143.273 Z M 192.479 153.262 C 192.322 153.551 191.955 153.699 191.377 153.699 L 184.011 153.699 C 183.434 153.699 183.04 153.577 182.839 153.332 C 182.637 153.087 182.542 152.738 182.542 152.291 L 182.542 134.682 C 182.542 132.625 182.227 131.27 181.605 130.596 C 180.984 129.922 180.039 129.59 178.796 129.59 C 177.992 129.59 177.012 129.799 175.848 130.228 C 174.685 130.648 173.688 131.086 172.84 131.532 L 172.84 152.291 C 172.84 152.65 172.76 152.974 172.603 153.262 C 172.446 153.551 172.061 153.699 171.431 153.699 L 164.066 153.699 C 163.522 153.699 163.164 153.577 162.962 153.332 C 162.761 153.087 162.665 152.738 162.665 152.291 L 162.665 134.471 C 162.665 132.599 162.368 131.313 161.756 130.621 C 161.144 129.931 160.233 129.581 159.027 129.581 C 158.213 129.581 157.241 129.782 156.096 130.184 C 154.95 130.587 153.9 131.034 152.964 131.524 L 152.964 152.282 C 152.964 152.641 152.876 152.965 152.693 153.253 C 152.518 153.542 152.116 153.69 151.495 153.69 L 144.181 153.69 C 143.647 153.69 143.28 153.568 143.079 153.323 C 142.878 153.078 142.781 152.729 142.781 152.282 L 142.781 122.154 C 142.781 121.708 142.878 121.349 143.079 121.086 C 143.28 120.816 143.647 120.684 144.181 120.684 L 151.495 120.684 C 152.116 120.684 152.518 120.841 152.693 121.156 C 152.868 121.471 152.964 121.805 152.964 122.163 L 152.964 123.702 L 153.096 123.772 C 154.522 122.609 156.087 121.708 157.784 121.06 C 159.481 120.413 161.196 120.089 162.945 120.089 C 164.958 120.089 166.717 120.456 168.238 121.192 C 169.752 121.927 170.871 123.082 171.588 124.638 C 173.155 123.344 174.922 122.26 176.907 121.392 C 178.893 120.526 180.888 120.089 182.9 120.089 C 185.262 120.089 187.107 120.483 188.429 121.262 C 189.741 122.049 190.729 123.064 191.377 124.305 C 192.024 125.557 192.417 126.965 192.549 128.523 C 192.68 130.089 192.75 131.646 192.75 133.211 L 192.75 152.299 C 192.715 152.641 192.637 152.965 192.479 153.262 Z" style="fill: rgb(255, 255, 255); stroke-width: 1px;" />
    </svg>
  </g>
</svg>
