<?xml version="1.0" encoding="utf-8"?>
<svg width="498" height="48" viewBox="0 0 2656 256" fill="none" xmlns="http://www.w3.org/2000/svg" version="1.1" xmlns:bx="https://boxy-svg.com">
  <defs>
    <bx:export>
      <bx:file format="svg" />
    </bx:export>
  </defs>
  <g transform="translate(0, 0)">
    <svg width="256" height="256" viewBox="0 0 256 256" fill="none" xmlns="http://www.w3.org/2000/svg">
      <rect width="256" height="256" rx="60" fill="#394AAB" />
      <path d="M134.001 33C169.144 33 199.828 52.0863 216.262 80.4561L216.102 80.183L174.753 103.991C166.607 90.1977 151.672 80.8892 134.54 80.6975L134.001 80.6945C107.875 80.6945 86.6945 101.874 86.6945 127.999C86.6945 136.543 88.9723 144.552 92.9335 151.469C101.088 165.704 116.416 175.306 134.001 175.306C151.693 175.306 167.109 165.582 175.222 151.195L175.025 151.54L216.311 175.458C200.057 203.588 169.794 222.615 135.059 222.994L134.001 223C98.746 223 67.9753 203.796 51.582 175.276C43.5791 161.353 39 145.212 39 127.999C39 75.5334 81.5323 33 134.001 33Z" fill="white" />
    </svg>
  </g>
  <g transform="translate(600, 0)">
    <svg xmlns="http://www.w3.org/2000/svg" width="256" height="256" fill="none" viewBox="0 0 256 256">
      <rect width="256" height="256" fill="#242938" rx="60" />
      <path fill="url(#paint0_linear_2_47)" d="M127.279 29C76.5066 29 79.6772 51.018 79.6772 51.018L79.7338 73.8284H128.185V80.6772H60.4893C60.4893 80.6772 28 76.9926 28 128.222C28 179.452 56.3573 177.636 56.3573 177.636H73.2812V153.863C73.2812 153.863 72.369 125.506 101.186 125.506H149.24C149.24 125.506 176.239 125.942 176.239 99.4123V55.5461C176.239 55.5461 180.338 29 127.279 29ZM100.563 44.339C105.384 44.339 109.28 48.2351 109.28 53.0556C109.28 57.8761 105.384 61.7723 100.563 61.7723C95.7426 61.7723 91.8465 57.8761 91.8465 53.0556C91.8465 48.2351 95.7426 44.339 100.563 44.339Z" />
      <path fill="url(#paint1_linear_2_47)" d="M128.721 227.958C179.493 227.958 176.323 205.941 176.323 205.941L176.266 183.13H127.815V176.281H195.511C195.511 176.281 228 179.966 228 128.736C228 77.5062 199.643 79.323 199.643 79.323H182.719V103.096C182.719 103.096 183.631 131.453 154.814 131.453H106.76C106.76 131.453 79.7607 131.016 79.7607 157.546V201.412C79.7607 201.412 75.6615 227.958 128.721 227.958ZM155.437 212.619C150.616 212.619 146.72 208.723 146.72 203.903C146.72 199.082 150.616 195.186 155.437 195.186C160.257 195.186 164.154 199.082 164.154 203.903C164.154 208.723 160.257 212.619 155.437 212.619Z" />
      <defs>
        <linearGradient id="paint0_linear_2_47" x1="47.22" x2="146.333" y1="46.896" y2="145.02" gradientUnits="userSpaceOnUse">
          <stop stop-color="#387EB8" />
          <stop offset="1" stop-color="#366994" />
        </linearGradient>
        <linearGradient id="paint1_linear_2_47" x1="108.056" x2="214.492" y1="109.905" y2="210.522" gradientUnits="userSpaceOnUse">
          <stop stop-color="#FFE052" />
          <stop offset="1" stop-color="#FFC331" />
        </linearGradient>
      </defs>
    </svg>
  </g>
  <g transform="translate(900, 0)">
    <svg xmlns="http://www.w3.org/2000/svg" width="256" height="256" fill="none" viewBox="0 0 256 256">
      <rect width="256" height="256" fill="#E43717" rx="60" />
      <g clip-path="url(#clip0_5_31)">
        <path fill="url(#paint0_linear_5_31)" fill-rule="evenodd" d="M177.454 156.477L74.6851 217.5L207.751 208.471L218 74.2944L177.454 156.477Z" clip-rule="evenodd" />
        <path fill="url(#paint1_linear_5_31)" fill-rule="evenodd" d="M207.969 208.379L196.532 129.44L165.379 170.577L207.969 208.379Z" clip-rule="evenodd" />
        <path fill="url(#paint2_linear_5_31)" fill-rule="evenodd" d="M208.124 208.379L124.334 201.802L75.1301 217.329L208.124 208.379Z" clip-rule="evenodd" />
        <path fill="url(#paint3_linear_5_31)" fill-rule="evenodd" d="M75.2482 217.346L96.1799 148.773L50.1193 158.622L75.2482 217.346Z" clip-rule="evenodd" />
        <path fill="url(#paint4_linear_5_31)" fill-rule="evenodd" d="M165.371 170.804L146.111 95.3623L90.9924 147.028L165.371 170.804Z" clip-rule="evenodd" />
        <path fill="url(#paint5_linear_5_31)" fill-rule="evenodd" d="M213.63 96.4253L161.528 53.8714L147.019 100.777L213.63 96.4253Z" clip-rule="evenodd" />
        <path fill="url(#paint6_linear_5_31)" fill-rule="evenodd" d="M189.264 38.6995L158.621 55.6339L139.288 38.4724L189.264 38.6995Z" clip-rule="evenodd" />
        <path fill="url(#paint7_linear_5_31)" fill-rule="evenodd" d="M38 181.624L50.837 158.212L40.4529 130.321L38 181.624Z" clip-rule="evenodd" />
        <path fill="#fff" fill-rule="evenodd" d="M39.7625 129.44L50.2101 159.075L95.6076 148.89L147.437 100.722L162.064 54.262L139.033 38L99.8766 52.654C87.5402 64.1283 63.6013 86.8316 62.7383 87.2586C61.8843 87.6946 46.9305 115.958 39.7625 129.44Z" clip-rule="evenodd" />
        <path fill="url(#paint8_linear_5_31)" fill-rule="evenodd" d="M76.4475 76.2022C103.184 49.6923 137.653 34.0299 150.88 47.3757C164.1 60.7215 150.081 93.1547 123.344 119.655C96.607 146.156 62.5657 162.682 49.3471 149.336C36.1194 135.999 49.7105 102.703 76.4475 76.2022V76.2022Z" clip-rule="evenodd" />
        <path fill="url(#paint9_linear_5_31)" fill-rule="evenodd" d="M75.2483 217.319L96.0165 148.527L164.989 170.686C140.051 194.07 112.315 213.839 75.2483 217.319Z" clip-rule="evenodd" />
        <path fill="url(#paint10_linear_5_31)" fill-rule="evenodd" d="M147.528 100.586L165.235 170.722C186.066 148.818 204.763 125.27 213.92 96.1436L147.528 100.586V100.586Z" clip-rule="evenodd" />
        <path fill="url(#paint11_linear_5_31)" fill-rule="evenodd" d="M213.739 96.498C220.825 75.112 222.461 44.4322 189.045 38.7359L161.627 53.8805L213.739 96.498V96.498Z" clip-rule="evenodd" />
        <path fill="#9E1209" fill-rule="evenodd" d="M38 181.315C38.9812 216.611 64.4463 217.137 75.2937 217.447L50.2374 158.93L38 181.315Z" clip-rule="evenodd" />
        <path fill="url(#paint12_radial_5_31)" fill-rule="evenodd" d="M147.627 100.695C163.635 110.534 195.896 130.294 196.55 130.657C197.567 131.23 210.459 108.917 213.385 96.3072L147.627 100.695V100.695Z" clip-rule="evenodd" />
        <path fill="url(#paint13_radial_5_31)" fill-rule="evenodd" d="M95.9893 148.527L123.753 202.092C140.169 193.189 153.025 182.342 164.799 170.722L95.9893 148.527Z" clip-rule="evenodd" />
        <path fill="url(#paint14_linear_5_31)" fill-rule="evenodd" d="M50.1284 159.002L46.1946 205.844C53.617 215.983 63.8285 216.864 74.5396 216.074C66.7901 196.787 51.3094 158.221 50.1284 159.002V159.002Z" clip-rule="evenodd" />
        <path fill="url(#paint15_linear_5_31)" fill-rule="evenodd" d="M161.464 53.9986L216.619 61.7389C213.676 49.2653 204.636 41.2161 189.228 38.6995L161.464 53.9986Z" clip-rule="evenodd" />
      </g>
      <defs>
        <linearGradient id="paint0_linear_5_31" x1="196.145" x2="158.172" y1="233.825" y2="166.782" gradientUnits="userSpaceOnUse">
          <stop stop-color="#FB7655" />
          <stop offset="0.41" stop-color="#E42B1E" />
          <stop offset="0.99" stop-color="#900" />
          <stop offset="1" stop-color="#900" />
        </linearGradient>
        <linearGradient id="paint1_linear_5_31" x1="215.061" x2="166.123" y1="177.506" y2="144.666" gradientUnits="userSpaceOnUse">
          <stop stop-color="#871101" />
          <stop offset="0.99" stop-color="#911209" />
          <stop offset="1" stop-color="#911209" />
        </linearGradient>
        <linearGradient id="paint2_linear_5_31" x1="175.905" x2="126.969" y1="235.857" y2="203.017" gradientUnits="userSpaceOnUse">
          <stop stop-color="#871101" />
          <stop offset="0.99" stop-color="#911209" />
          <stop offset="1" stop-color="#911209" />
        </linearGradient>
        <linearGradient id="paint3_linear_5_31" x1="73.155" x2="80.742" y1="153.734" y2="203.038" gradientUnits="userSpaceOnUse">
          <stop stop-color="#fff" />
          <stop offset="0.23" stop-color="#E57252" />
          <stop offset="0.46" stop-color="#DE3B20" />
          <stop offset="0.99" stop-color="#A60003" />
          <stop offset="1" stop-color="#A60003" />
        </linearGradient>
        <linearGradient id="paint4_linear_5_31" x1="125.336" x2="128.131" y1="107.695" y2="158.014" gradientUnits="userSpaceOnUse">
          <stop stop-color="#fff" />
          <stop offset="0.23" stop-color="#E4714E" />
          <stop offset="0.56" stop-color="#BE1A0D" />
          <stop offset="0.99" stop-color="#A80D00" />
          <stop offset="1" stop-color="#A80D00" />
        </linearGradient>
        <linearGradient id="paint5_linear_5_31" x1="171.642" x2="180.01" y1="61.186" y2="97.249" gradientUnits="userSpaceOnUse">
          <stop stop-color="#fff" />
          <stop offset="0.18" stop-color="#E46342" />
          <stop offset="0.4" stop-color="#C82410" />
          <stop offset="0.99" stop-color="#A80D00" />
          <stop offset="1" stop-color="#A80D00" />
        </linearGradient>
        <linearGradient id="paint6_linear_5_31" x1="146.089" x2="182.15" y1="48.485" y2="30.455" gradientUnits="userSpaceOnUse">
          <stop stop-color="#fff" />
          <stop offset="0.54" stop-color="#C81F11" />
          <stop offset="0.99" stop-color="#BF0905" />
          <stop offset="1" stop-color="#BF0905" />
        </linearGradient>
        <linearGradient id="paint7_linear_5_31" x1="41.546" x2="44.514" y1="141.164" y2="170.879" gradientUnits="userSpaceOnUse">
          <stop stop-color="#fff" />
          <stop offset="0.31" stop-color="#DE4024" />
          <stop offset="0.99" stop-color="#BF190B" />
          <stop offset="1" stop-color="#BF190B" />
        </linearGradient>
        <linearGradient id="paint8_linear_5_31" x1="21.142" x2="160.661" y1="178.912" y2="35.448" gradientUnits="userSpaceOnUse">
          <stop stop-color="#BD0012" />
          <stop offset="0.07" stop-color="#fff" />
          <stop offset="0.17" stop-color="#fff" />
          <stop offset="0.27" stop-color="#C82F1C" />
          <stop offset="0.33" stop-color="#820C01" />
          <stop offset="0.46" stop-color="#A31601" />
          <stop offset="0.72" stop-color="#B31301" />
          <stop offset="0.99" stop-color="#E82609" />
          <stop offset="1" stop-color="#E82609" />
        </linearGradient>
        <linearGradient id="paint9_linear_5_31" x1="128.009" x2="85.985" y1="193.383" y2="183.011" gradientUnits="userSpaceOnUse">
          <stop stop-color="#8C0C01" />
          <stop offset="0.54" stop-color="#990C00" />
          <stop offset="0.99" stop-color="#A80D0E" />
          <stop offset="1" stop-color="#A80D0E" />
        </linearGradient>
        <linearGradient id="paint10_linear_5_31" x1="200.19" x2="162.857" y1="142.944" y2="109.484" gradientUnits="userSpaceOnUse">
          <stop stop-color="#7E110B" />
          <stop offset="0.99" stop-color="#9E0C00" />
          <stop offset="1" stop-color="#9E0C00" />
        </linearGradient>
        <linearGradient id="paint11_linear_5_31" x1="213.906" x2="195.31" y1="81.55" y2="61.67" gradientUnits="userSpaceOnUse">
          <stop stop-color="#79130D" />
          <stop offset="0.99" stop-color="#9E120B" />
          <stop offset="1" stop-color="#9E120B" />
        </linearGradient>
        <radialGradient id="paint12_radial_5_31" cx="0" cy="0" r="1" gradientTransform="translate(168.67 110.124) scale(45.7496)" gradientUnits="userSpaceOnUse">
          <stop stop-color="#A80D00" />
          <stop offset="0.99" stop-color="#7E0E08" />
          <stop offset="1" stop-color="#7E0E08" />
        </radialGradient>
        <radialGradient id="paint13_radial_5_31" cx="0" cy="0" r="1" gradientTransform="translate(105.313 170.414) scale(60.818)" gradientUnits="userSpaceOnUse">
          <stop stop-color="#A30C00" />
          <stop offset="0.99" stop-color="#800E08" />
          <stop offset="1" stop-color="#800E08" />
        </radialGradient>
        <linearGradient id="paint14_linear_5_31" x1="62.229" x2="47.075" y1="217.279" y2="165.863" gradientUnits="userSpaceOnUse">
          <stop stop-color="#8B2114" />
          <stop offset="0.43" stop-color="#9E100A" />
          <stop offset="0.99" stop-color="#B3100C" />
          <stop offset="1" stop-color="#B3100C" />
        </linearGradient>
        <linearGradient id="paint15_linear_5_31" x1="178.491" x2="212.466" y1="46.901" y2="61.899" gradientUnits="userSpaceOnUse">
          <stop stop-color="#B31000" />
          <stop offset="0.44" stop-color="#910F08" />
          <stop offset="0.99" stop-color="#791C12" />
          <stop offset="1" stop-color="#791C12" />
        </linearGradient>
        <clipPath id="clip0_5_31">
          <rect width="180" height="179.5" fill="#fff" transform="translate(38 38)" />
        </clipPath>
      </defs>
    </svg>
  </g>
    <g transform="translate(1200, 0)">
    <svg xmlns="http://www.w3.org/2000/svg" width="256" height="256" fill="none" viewBox="0 0 256 256">
      <rect width="256" height="256" fill="#242938" rx="60" />
      <path fill="#242938" fill-rule="evenodd" d="M203.819 68.8354L140.679 31.3552C133.143 26.8816 123.854 26.8816 116.318 31.3552L53.1774 68.8354C45.6434 73.3091 41 81.575 41 90.5223V165.483C41 174.428 45.6434 182.698 53.1796 187.172L116.32 224.645C120.088 226.883 124.29 227.999 128.499 227.999C132.706 227.999 136.909 226.883 140.677 224.645L203.817 187.172C211.353 182.698 215.999 174.428 215.999 165.483V90.5223C215.999 81.575 211.353 73.3091 203.819 68.8354Z" clip-rule="evenodd" />
      <path fill="#fff" fill-rule="evenodd" d="M118.527 220.808L55.3866 183.334C49.2108 179.668 45.3744 172.828 45.3744 165.482V90.5234C45.3744 83.1768 49.2109 76.3374 55.3844 72.673L118.527 35.1928C121.554 33.3958 125.002 32.4455 128.499 32.4455C131.994 32.4455 135.442 33.3958 138.472 35.1928L201.612 72.673C206.816 75.7619 210.326 81.1109 211.313 87.1103C209.219 82.6411 204.496 81.4262 198.993 84.6409L139.259 121.537C131.811 125.891 126.319 130.777 126.314 139.758V213.362C126.31 218.74 128.482 222.223 131.818 223.233C130.722 223.423 129.617 223.555 128.499 223.555C125.002 223.555 121.554 222.605 118.527 220.808ZM203.819 68.8343L140.679 31.3563C136.911 29.1184 132.704 28.0005 128.499 28.0005C124.293 28.0005 120.086 29.1184 116.318 31.3563L53.1774 68.8343C45.6434 73.308 41 81.5761 41 90.5234V165.482C41 174.427 45.6434 182.697 53.1796 187.171L116.32 224.646C120.09 226.882 124.293 228 128.499 228C132.706 228 136.909 226.882 140.677 224.646L203.819 187.171C211.355 182.697 215.999 174.427 215.999 165.482V90.5234C215.999 81.5761 211.355 73.308 203.819 68.8343Z" clip-rule="evenodd" />
      <path fill="#47B353" fill-rule="evenodd" d="M187.267 172.729L171.545 182.139C171.128 182.382 170.822 182.655 170.819 183.156V187.27C170.819 187.773 171.157 187.982 171.573 187.737L187.539 178.034C187.955 177.791 188.019 177.326 188.022 176.825V173.196C188.022 172.696 187.684 172.486 187.267 172.729Z" clip-rule="evenodd" />
      <path fill="#242938" fill-rule="evenodd" d="M153.788 138.098C154.297 137.84 154.716 138.157 154.723 138.823L154.776 144.262C157.053 143.356 159.031 143.114 160.823 143.528C161.212 143.632 161.384 144.161 161.225 144.789L160.028 149.609C159.935 149.973 159.73 150.341 159.483 150.57C159.379 150.672 159.273 150.751 159.168 150.804C159.007 150.886 158.848 150.912 158.696 150.881C157.878 150.696 155.933 150.271 152.873 151.821C149.663 153.446 148.54 156.235 148.562 158.305C148.589 160.777 149.857 161.526 154.235 161.601C160.069 161.698 162.59 164.247 162.651 170.123C162.711 175.893 159.631 182.089 154.919 185.886L155.023 191.27C155.029 191.918 154.608 192.661 154.099 192.919L150.91 194.756C150.399 195.014 149.98 194.696 149.973 194.048L149.918 188.752C147.187 189.887 144.419 190.161 142.651 189.451C142.318 189.321 142.175 188.829 142.307 188.269L143.463 183.401C143.555 183.017 143.758 182.633 144.034 182.389C144.131 182.294 144.232 182.221 144.333 182.17C144.516 182.078 144.695 182.058 144.847 182.115C146.752 182.757 149.189 182.457 151.532 181.271C154.509 179.765 156.5 176.729 156.469 173.713C156.44 170.976 154.959 169.839 151.356 169.812C146.77 169.825 142.495 168.921 142.424 162.17C142.367 156.612 145.257 150.828 149.832 147.171L149.775 141.736C149.768 141.068 150.176 140.333 150.701 140.069L153.788 138.098Z" clip-rule="evenodd" />
    </svg>
  </g>
  <g transform="translate(1500, 0)">
    <svg xmlns="http://www.w3.org/2000/svg" width="256" height="256" fill="none" viewBox="0 0 256 256">
      <rect width="256" height="256" fill="#242938" rx="60" />
      <path fill="#019833" d="M135.498 39.4619C128.076 32.03 116.032 32.03 108.61 39.462L33.4081 114.765C26.0001 122.183 26.0001 134.199 33.4081 141.617L108.186 216.495C115.608 223.927 127.652 223.927 135.074 216.495L210.276 141.191C217.684 133.773 217.684 121.757 210.276 114.339L135.498 39.4619Z" />
      <path fill="#fff" d="M161.769 40.7104L159.083 43.3988V53.2693L161.435 55.6235H173.86V65.1606L91.672 148.576V55.7425H105.331L108.133 52.9365V42.9482L105.546 40.9465H33.6672L31.3158 43.3007V53.5048L33.7069 55.8988H46.2085V216.316C46.2085 222.361 50.6553 227.485 56.6396 228.335V228.335C60.4891 228.883 64.3678 227.553 67.0718 224.759L235 51.2474V43.4001L232.315 40.7117L161.769 40.7104Z" />
    </svg>
  </g>
  <g transform="translate(1800, 0)">
    <svg width="256" height="256" viewBox="0 0 256 256" fill="none" xmlns="http://www.w3.org/2000/svg">
      <rect width="256" height="256" rx="60" fill="#242938" />
      <path d="M128.001 30C72.7791 30 28 74.7708 28 130.001C28 174.184 56.6533 211.668 96.3867 224.891C101.384 225.817 103.219 222.722 103.219 220.081C103.219 217.696 103.126 209.819 103.083 201.463C75.2631 207.512 69.3927 189.664 69.3927 189.664C64.8437 178.105 58.2894 175.032 58.2894 175.032C49.2163 168.825 58.9733 168.953 58.9733 168.953C69.0151 169.658 74.3026 179.258 74.3026 179.258C83.2217 194.546 97.6965 190.126 103.403 187.571C104.301 181.107 106.892 176.696 109.752 174.199C87.5405 171.67 64.1913 163.095 64.1913 124.778C64.1913 113.86 68.0977 104.939 74.4947 97.9362C73.4564 95.4175 70.0335 85.2465 75.4635 71.4722C75.4635 71.4722 83.8609 68.7845 102.971 81.7226C110.948 79.5069 119.502 78.3958 128.001 78.3577C136.499 78.3958 145.061 79.5069 153.052 81.7226C172.139 68.7845 180.525 71.4722 180.525 71.4722C185.968 85.2465 182.544 95.4175 181.505 97.9362C187.917 104.939 191.797 113.86 191.797 124.778C191.797 163.187 168.403 171.644 146.135 174.119C149.722 177.223 152.918 183.308 152.918 192.638C152.918 206.018 152.802 216.787 152.802 220.081C152.802 222.742 154.602 225.86 159.671 224.878C199.383 211.64 228 174.169 228 130.001C228 74.7708 183.227 30 128.001 30ZM65.4536 172.453C65.2333 172.95 64.4517 173.099 63.7396 172.758C63.0143 172.432 62.6069 171.754 62.8421 171.256C63.0574 170.744 63.8406 170.602 64.5643 170.945C65.2913 171.271 65.7053 171.955 65.4536 172.453ZM70.3725 176.842C69.8956 177.285 68.9633 177.079 68.3307 176.38C67.6766 175.683 67.554 174.751 68.0376 174.302C68.5294 173.86 69.4336 174.067 70.0893 174.764C70.7434 175.47 70.8709 176.395 70.3725 176.842ZM73.7471 182.458C73.1344 182.884 72.1325 182.485 71.5132 181.595C70.9004 180.706 70.9004 179.64 71.5264 179.212C72.1474 178.785 73.1344 179.169 73.762 180.052C74.373 180.956 74.373 182.023 73.7471 182.458ZM79.4542 188.962C78.9061 189.566 77.7386 189.404 76.8841 188.579C76.0098 187.773 75.7663 186.629 76.3161 186.024C76.8709 185.418 78.045 185.589 78.9061 186.407C79.7738 187.211 80.0387 188.364 79.4542 188.962ZM86.8301 191.157C86.5883 191.941 85.4639 192.297 84.3312 191.964C83.2002 191.621 82.46 190.704 82.6885 189.912C82.9237 189.124 84.053 188.753 85.194 189.109C86.3234 189.45 87.0652 190.361 86.8301 191.157ZM95.2242 192.089C95.2523 192.913 94.2919 193.597 93.1029 193.612C91.9073 193.639 90.9402 192.971 90.9269 192.16C90.9269 191.327 91.8659 190.65 93.0615 190.63C94.2505 190.607 95.2242 191.269 95.2242 192.089ZM103.47 191.773C103.613 192.577 102.787 193.404 101.606 193.624C100.445 193.836 99.3702 193.339 99.2229 192.541C99.0788 191.716 99.92 190.89 101.079 190.676C102.262 190.471 103.32 190.955 103.47 191.773Z" fill="white" />
    </svg>
  </g>
  <g transform="translate(2100, 0)">
    <svg xmlns="http://www.w3.org/2000/svg" width="256" height="256" fill="none" viewBox="0 0 256 256">
      <rect width="256" height="256" fill="#F03C2E" rx="60" />
      <g clip-path="url(#clip0_7_283)">
        <path fill="#fff" d="M224.225 119.094L136.906 31.775C135.711 30.5787 134.291 29.6298 132.729 28.9824C131.166 28.3349 129.491 28.0017 127.8 28.0017C126.109 28.0017 124.434 28.3349 122.871 28.9824C121.309 29.6298 119.889 30.5787 118.694 31.775L100.569 49.9L123.569 72.9C128.919 71.025 135.044 72.3062 139.306 76.5687C141.335 78.6014 142.752 81.1638 143.394 83.9632C144.036 86.7626 143.878 89.6862 142.937 92.4L165.106 114.569C170.469 112.719 176.656 113.912 180.937 118.206C182.361 119.63 183.49 121.32 184.26 123.18C185.03 125.04 185.426 127.033 185.426 129.046C185.425 131.059 185.029 133.052 184.258 134.912C183.487 136.771 182.358 138.461 180.934 139.884C179.511 141.308 177.821 142.436 175.961 143.206C174.101 143.977 172.108 144.373 170.095 144.372C168.082 144.372 166.088 143.975 164.229 143.205C162.369 142.434 160.679 141.305 159.256 139.881C154.756 135.381 153.644 128.756 155.919 123.212L135.244 102.537V156.944C136.745 157.686 138.116 158.666 139.306 159.844C140.729 161.267 141.858 162.956 142.629 164.816C143.399 166.675 143.795 168.668 143.795 170.681C143.795 172.694 143.399 174.687 142.629 176.546C141.858 178.406 140.729 180.096 139.306 181.519C137.883 182.942 136.193 184.071 134.334 184.841C132.474 185.611 130.481 186.008 128.469 186.008C126.456 186.008 124.463 185.611 122.604 184.841C120.744 184.071 119.054 182.942 117.631 181.519C116.206 180.096 115.076 178.407 114.305 176.548C113.533 174.688 113.136 172.694 113.136 170.681C113.136 168.668 113.533 166.675 114.305 164.815C115.076 162.955 116.206 161.266 117.631 159.844C119.112 158.369 120.756 157.25 122.65 156.5V101.587C120.825 100.837 119.112 99.7312 117.631 98.2437C115.479 96.0943 114.016 93.3526 113.428 90.3684C112.841 87.3841 113.155 84.2924 114.331 81.4875L91.6437 58.8125L31.7687 118.625C30.5716 119.821 29.6219 121.241 28.9739 122.804C28.3259 124.367 27.9924 126.042 27.9924 127.734C27.9924 129.426 28.3259 131.102 28.9739 132.665C29.6219 134.228 30.5716 135.648 31.7687 136.844L119.094 224.156C120.289 225.352 121.709 226.301 123.271 226.949C124.834 227.596 126.509 227.929 128.2 227.929C129.891 227.929 131.566 227.596 133.129 226.949C134.691 226.301 136.111 225.352 137.306 224.156L224.225 137.375C225.422 136.179 226.372 134.759 227.02 133.196C227.668 131.633 228.001 129.958 228.001 128.266C228.001 126.574 227.668 124.898 227.02 123.335C226.372 121.772 225.422 120.352 224.225 119.156" />
      </g>
      <defs>
        <clipPath id="clip0_7_283">
          <rect width="200" height="200" fill="#fff" transform="translate(28 28)" />
        </clipPath>
      </defs>
    </svg>
  </g>
  <g transform="translate(2400, 0)">
    <svg width="256" height="256" viewBox="0 0 256 256" fill="none" xmlns="http://www.w3.org/2000/svg">
      <g clip-path="url(#clip0_33_628)">
        <path d="M196 0H60C26.8629 0 0 26.8629 0 60V196C0 229.137 26.8629 256 60 256H196C229.137 256 256 229.137 256 196V60C256 26.8629 229.137 0 196 0Z" fill="#242938" />
        <g clip-path="url(#clip1_33_628)">
          <path d="M127.5 41C119.711 60.0976 114.981 72.6074 106.309 91.1373C111.626 96.7737 118.161 103.313 128.76 110.727C117.365 106.037 109.597 101.342 103.788 96.4565C92.6887 119.617 75.2882 152.594 40 216C67.7284 199.992 89.2239 190.118 109.257 186.349C108.4 182.655 107.942 178.64 107.975 174.472L107.996 173.596C108.436 155.826 117.682 142.163 128.632 143.09C139.582 144.018 148.106 159.18 147.666 176.95C147.583 180.297 147.194 183.513 146.534 186.499C166.351 190.377 187.644 200.207 215 216C209.605 206.068 204.773 197.119 200.175 188.592C192.931 182.978 185.38 175.674 169.968 167.764C180.561 170.516 188.153 173.699 194.065 177.249C147.31 90.2001 143.533 78.6253 127.5 41Z" fill="#1793D1" />
          <path d="M176.755 145.015C138.825 93.5323 130.033 52.0391 127.806 42.1328C148.039 88.8013 147.901 89.3736 176.755 145.015Z" fill="white" fill-opacity="0.16568" />
          <path d="M127.821 41.7482C126.848 44.1402 125.9 46.4614 125.002 48.6696C124.006 51.1157 123.059 53.451 122.118 55.7405C121.177 58.03 120.244 60.2643 119.319 62.4696C118.394 64.6751 117.467 66.8554 116.521 69.0492C115.574 71.243 114.622 73.4596 113.615 75.7143C112.609 77.969 111.558 80.2689 110.454 82.657C109.349 85.0452 108.191 87.5185 106.95 90.1125C106.778 90.4718 106.57 90.8807 106.395 91.2447C111.696 96.8591 118.222 103.356 128.761 110.727C117.395 106.05 109.635 101.372 103.831 96.4998C103.53 97.115 103.266 97.6643 102.956 98.2943C102.547 99.1234 102.056 100.066 101.631 100.922C100.885 102.451 100.106 104.022 99.3027 105.643C98.9939 106.257 98.7229 106.788 98.4054 107.416C93.3329 117.596 87.04 129.782 78.9443 144.928C101.138 132.424 125.076 114.384 168.559 129.911C166.379 125.781 164.375 121.909 162.492 118.268C160.61 114.627 158.861 111.217 157.237 107.993C155.614 104.769 154.113 101.729 152.708 98.8497C151.304 95.9705 150.002 93.2529 148.778 90.6465C147.553 88.0402 146.4 85.5323 145.317 83.127C144.234 80.7218 143.201 78.4175 142.22 76.1415C141.238 73.8654 140.298 71.631 139.378 69.4124C138.459 67.1938 137.561 64.9805 136.665 62.7473C136.345 61.9494 136.025 61.1181 135.704 60.312C133.251 54.553 130.732 48.5855 127.821 41.7482Z" fill="url(#paint0_linear_33_628)" />
        </g>
      </g>
      <defs>
        <linearGradient id="paint0_linear_33_628" x1="127.904" y1="61.7314" x2="104.123" y2="133.77" gradientUnits="userSpaceOnUse">
          <stop stop-color="white" stop-opacity="0" />
          <stop offset="1" stop-color="white" stop-opacity="0.27451" />
        </linearGradient>
        <clipPath id="clip0_33_628">
          <rect width="256" height="256" fill="white" />
        </clipPath>
        <clipPath id="clip1_33_628">
          <rect width="175" height="175" fill="white" transform="translate(40 41)" />
        </clipPath>
      </defs>
    </svg>
  </g>

  <g transform="matrix(1, 0, 0, 1, 300, 0.000031)" style="transform-origin: 128px 128px 0px;">
    <svg width="256" height="256" viewBox="0 0 256 256" fill="none" xmlns="http://www.w3.org/2000/svg">
      <rect width="256" height="256" rx="60" style="fill: rgb(36, 41, 56);" />
      <path class="st0" d="M 217.651 16 C 205.296 16 195.285 26.01 195.285 38.357 C 195.285 42.697 196.546 46.739 198.681 50.168 L 184.444 64.405 C 166.558 48.217 142.845 38.357 116.821 38.357 C 61.143 38.357 16 83.507 16 139.182 C 16 194.867 61.143 240 116.821 240 C 172.508 240 217.643 194.859 217.643 139.182 C 217.643 113.16 207.781 89.447 191.593 71.562 L 205.829 57.327 C 209.259 59.47 213.303 60.721 217.643 60.721 C 229.99 60.721 240 50.712 240 38.365 C 240 26.018 229.998 16 217.651 16 Z" style="fill: rgb(17, 59, 106); stroke-width: 1px;" />
      <path class="st1" d="M 69.858 153.262 C 69.701 153.551 69.316 153.699 68.686 153.699 L 61.32 153.699 C 60.34 153.699 59.851 153.227 59.851 152.291 C 59.851 150.323 59.851 148.372 59.868 146.431 L 59.885 143.526 C 59.912 140.63 59.921 137.7 59.921 134.752 C 59.921 132.879 59.597 131.549 58.948 130.77 C 58.302 129.992 57.261 129.598 55.835 129.598 C 54.768 129.598 53.604 129.852 52.353 130.368 C 51.103 130.885 50.079 131.279 49.274 131.541 L 49.274 152.299 C 49.274 152.659 49.195 152.983 49.037 153.271 C 48.88 153.56 48.495 153.708 47.866 153.708 L 40.569 153.708 C 39.992 153.708 39.598 153.586 39.397 153.341 C 39.196 153.096 39.1 152.746 39.1 152.299 L 39.1 122.172 C 39.1 121.726 39.196 121.366 39.397 121.104 C 39.598 120.832 39.992 120.701 40.569 120.701 L 47.866 120.701 C 48.486 120.701 48.88 120.859 49.037 121.174 C 49.195 121.489 49.274 121.822 49.274 122.181 L 49.274 123.79 C 49.3 123.79 49.326 123.798 49.344 123.807 L 49.37 123.825 C 49.396 123.851 49.422 123.859 49.475 123.859 C 50.954 122.749 52.668 121.839 54.628 121.147 C 56.588 120.456 58.38 120.107 59.982 120.107 C 62.344 120.107 64.216 120.501 65.572 121.279 C 66.936 122.067 67.951 123.09 68.616 124.358 C 69.289 125.627 69.701 127.053 69.849 128.61 C 70.007 130.175 70.086 131.734 70.086 133.299 L 70.086 152.316 C 70.103 152.641 70.016 152.965 69.858 153.262 Z M 95.682 149.676 C 94.79 150.48 93.827 151.171 92.804 151.748 C 91.781 152.325 90.731 152.807 89.654 153.192 C 88.579 153.568 87.538 153.839 86.505 153.997 C 85.482 154.154 84.546 154.233 83.698 154.233 C 81.729 154.233 80.136 153.953 78.912 153.393 C 77.688 152.834 76.733 152.107 76.069 151.215 C 75.396 150.323 74.941 149.282 74.696 148.1 C 74.486 147.121 74.372 146.088 74.336 145.03 L 74.328 144.383 C 74.284 142.327 74.565 140.595 75.168 139.16 C 75.772 137.734 76.629 136.579 77.749 135.713 C 78.86 134.847 80.224 134.218 81.834 133.841 C 83.443 133.465 85.229 133.272 87.189 133.272 L 94.886 133.272 L 94.886 132.205 C 94.886 131.488 94.807 130.885 94.649 130.394 C 94.493 129.905 94.203 129.502 93.784 129.188 C 93.356 128.873 92.768 128.645 92.008 128.488 C 91.343 128.348 90.495 128.269 89.453 128.261 L 88.999 128.261 C 88.701 128.261 88.36 128.269 87.984 128.286 L 84.853 128.461 C 84.047 128.506 83.242 128.576 82.438 128.662 C 81.834 128.733 81.274 128.785 80.741 128.829 L 79.647 128.916 C 79.026 128.952 78.606 128.943 78.379 128.873 C 78.09 128.785 77.854 128.4 77.679 127.735 L 76.944 124.253 C 76.856 123.676 76.935 123.195 77.179 122.81 C 77.424 122.434 78.064 122.04 79.087 121.639 C 79.848 121.366 80.723 121.139 81.729 120.938 C 82.735 120.737 83.759 120.571 84.808 120.44 C 85.858 120.308 86.899 120.203 87.923 120.142 C 88.946 120.072 89.839 120.046 90.6 120.046 C 93.723 120.046 96.233 120.334 98.131 120.911 C 100.03 121.489 101.482 122.321 102.48 123.388 C 103.476 124.454 104.141 125.776 104.456 127.341 C 104.771 128.907 104.928 130.692 104.928 132.695 L 104.928 143.273 C 104.928 143.989 104.964 144.54 105.034 144.942 C 105.104 145.345 105.227 145.642 105.402 145.843 C 105.576 146.045 105.821 146.194 106.136 146.282 C 106.39 146.352 106.704 146.413 107.098 146.456 L 107.404 146.483 C 107.981 146.526 108.367 146.631 108.542 146.78 C 108.717 146.937 108.813 147.217 108.813 147.62 L 108.813 151.906 C 108.813 152.738 108.253 153.297 107.142 153.586 L 106.871 153.647 C 105.62 153.962 104.237 154.119 102.715 154.119 C 101.062 154.119 99.611 153.839 98.359 153.28 C 97.108 152.72 96.26 151.547 95.813 149.763 L 95.682 149.676 Z M 94.676 139.763 L 88.648 139.763 C 87.398 139.763 86.418 140.053 85.7 140.63 C 84.984 141.207 84.625 142.283 84.625 143.849 C 84.625 144.872 84.835 145.59 85.263 145.992 C 85.683 146.395 86.479 146.596 87.643 146.596 C 88.666 146.596 89.865 146.352 91.23 145.861 C 92.594 145.371 93.741 144.838 94.676 144.252 L 94.676 139.763 Z M 138.669 143.273 C 138.669 145.362 138.258 147.113 137.428 148.512 C 136.597 149.92 135.494 151.04 134.113 151.888 C 132.73 152.738 131.156 153.35 129.388 153.726 C 127.622 154.102 125.784 154.294 123.86 154.294 C 123.054 154.294 122.189 154.259 121.253 154.197 C 120.316 154.128 119.363 154.032 118.41 153.9 C 117.447 153.769 116.528 153.612 115.662 153.437 C 114.797 153.262 114.017 153.061 113.353 152.842 C 112.234 152.44 111.525 152.037 111.21 151.608 C 110.929 151.232 110.868 150.681 111.008 149.938 L 111.805 146.465 C 111.936 145.843 112.137 145.458 112.409 145.327 C 112.645 145.214 113.064 145.196 113.677 145.284 L 113.947 145.327 C 115.514 145.599 117.202 145.808 119.04 145.966 C 120.868 146.123 122.364 146.203 123.526 146.203 C 125.225 146.203 126.423 146.009 127.14 145.633 C 127.858 145.248 128.207 144.619 128.207 143.719 C 128.207 142.729 127.937 142.073 127.403 141.741 C 126.869 141.408 125.88 141.146 124.455 140.971 C 122.626 140.7 120.921 140.385 119.328 140.035 C 117.745 139.676 116.344 139.142 115.146 138.425 C 113.939 137.708 112.994 136.745 112.303 135.538 C 111.612 134.331 111.262 132.739 111.262 130.77 C 111.262 128.977 111.604 127.411 112.295 126.073 C 112.977 124.735 113.922 123.614 115.121 122.722 C 116.319 121.831 117.754 121.156 119.416 120.71 C 121.078 120.264 122.897 120.037 124.856 120.037 C 125.617 120.037 126.457 120.072 127.368 120.142 C 128.286 120.212 129.213 120.3 130.149 120.413 C 131.086 120.526 131.995 120.676 132.861 120.85 C 133.728 121.034 134.523 121.253 135.241 121.523 C 136.134 121.839 136.789 122.163 137.217 122.504 C 137.638 122.845 137.742 123.44 137.515 124.297 L 136.78 127.745 C 136.605 128.374 136.413 128.75 136.212 128.89 C 136.037 129.013 135.634 129.038 135.013 128.986 L 132.949 128.741 C 132.73 128.715 132.511 128.689 132.292 128.662 C 131.401 128.549 130.517 128.461 129.65 128.392 L 127.788 128.261 C 127.595 128.252 127.394 128.234 127.21 128.225 L 126.353 128.182 C 126.221 128.173 126.09 128.173 125.968 128.173 L 125.268 128.164 C 123.57 128.121 122.513 128.313 122.083 128.733 C 121.664 129.152 121.445 129.721 121.445 130.438 C 121.445 131.288 121.838 131.829 122.626 132.074 C 123.413 132.319 124.411 132.556 125.617 132.774 C 127.368 133.001 129.02 133.272 130.595 133.605 C 132.161 133.938 133.544 134.489 134.724 135.241 C 135.905 135.993 136.859 137.009 137.585 138.277 C 138.311 139.501 138.669 141.181 138.669 143.273 Z M 192.479 153.262 C 192.322 153.551 191.955 153.699 191.377 153.699 L 184.011 153.699 C 183.434 153.699 183.04 153.577 182.839 153.332 C 182.637 153.087 182.542 152.738 182.542 152.291 L 182.542 134.682 C 182.542 132.625 182.227 131.27 181.605 130.596 C 180.984 129.922 180.039 129.59 178.796 129.59 C 177.992 129.59 177.012 129.799 175.848 130.228 C 174.685 130.648 173.688 131.086 172.84 131.532 L 172.84 152.291 C 172.84 152.65 172.76 152.974 172.603 153.262 C 172.446 153.551 172.061 153.699 171.431 153.699 L 164.066 153.699 C 163.522 153.699 163.164 153.577 162.962 153.332 C 162.761 153.087 162.665 152.738 162.665 152.291 L 162.665 134.471 C 162.665 132.599 162.368 131.313 161.756 130.621 C 161.144 129.931 160.233 129.581 159.027 129.581 C 158.213 129.581 157.241 129.782 156.096 130.184 C 154.95 130.587 153.9 131.034 152.964 131.524 L 152.964 152.282 C 152.964 152.641 152.876 152.965 152.693 153.253 C 152.518 153.542 152.116 153.69 151.495 153.69 L 144.181 153.69 C 143.647 153.69 143.28 153.568 143.079 153.323 C 142.878 153.078 142.781 152.729 142.781 152.282 L 142.781 122.154 C 142.781 121.708 142.878 121.349 143.079 121.086 C 143.28 120.816 143.647 120.684 144.181 120.684 L 151.495 120.684 C 152.116 120.684 152.518 120.841 152.693 121.156 C 152.868 121.471 152.964 121.805 152.964 122.163 L 152.964 123.702 L 153.096 123.772 C 154.522 122.609 156.087 121.708 157.784 121.06 C 159.481 120.413 161.196 120.089 162.945 120.089 C 164.958 120.089 166.717 120.456 168.238 121.192 C 169.752 121.927 170.871 123.082 171.588 124.638 C 173.155 123.344 174.922 122.26 176.907 121.392 C 178.893 120.526 180.888 120.089 182.9 120.089 C 185.262 120.089 187.107 120.483 188.429 121.262 C 189.741 122.049 190.729 123.064 191.377 124.305 C 192.024 125.557 192.417 126.965 192.549 128.523 C 192.68 130.089 192.75 131.646 192.75 133.211 L 192.75 152.299 C 192.715 152.641 192.637 152.965 192.479 153.262 Z" style="fill: rgb(255, 255, 255); stroke-width: 1px;" />
    </svg>
  </g>
</svg>
